<svg width="11" height="18" viewBox="0 0 11 18" fill="none" xmlns="http://www.w3.org/2000/svg">
<path d="M2.22073 0.515859C2.22073 0.230958 2.45564 0 2.74541 0H8.25459C8.54436 0 8.77927 0.230958 8.77927 0.515859V10.3172H2.22073V0.515859Z" fill="white"/>
<path d="M5.92049 15.1798C5.71066 15.4562 5.28934 15.4562 5.07951 15.1798L0.105147 8.62678C-0.153116 8.28655 0.0938382 7.80237 0.525633 7.80237L10.4744 7.80237C10.9062 7.80237 11.1531 8.28655 10.8949 8.62677L5.92049 15.1798Z" fill="white"/>
<path d="M0.868421 16.8387C0.868421 16.6784 0.998023 16.5484 1.15789 16.5484H9.8421C10.002 16.5484 10.1316 16.6784 10.1316 16.8387V17.7097C10.1316 17.87 10.002 18 9.8421 18H1.15789C0.998023 18 0.868421 17.87 0.868421 17.7097V16.8387Z" fill="white"/>
</svg>
