<svg width="18" height="10" viewBox="0 0 18 10" fill="none" xmlns="http://www.w3.org/2000/svg">
<path d="M17.8132 9.10809C17.6973 9.16864 17.554 9.171 17.4357 9.11413L13.3057 7.12595V8.31889C13.3046 9.24691 12.4516 9.99895 11.399 10H1.90678C0.854178 9.99895 0.00119174 9.24691 0 8.31889V1.68111C0.00119174 0.753087 0.854178 0.00105095 1.90678 0H11.399C12.4516 0.00105095 13.3046 0.753087 13.3057 1.68111V2.85238L17.4359 0.864198C17.554 0.807329 17.6974 0.809562 17.8132 0.870108C17.9291 0.930785 18 1.04071 18 1.15931V8.81902C18 8.93775 17.9289 9.04754 17.8132 9.10809Z" fill="white"/>
</svg>
