<svg width="26" height="26" viewBox="0 0 26 26" fill="none" xmlns="http://www.w3.org/2000/svg">
<path fill-rule="evenodd" clip-rule="evenodd" d="M7.36328 10.7082V11.4258H7.89966L7.36328 10.7082ZM9.03834 12.9492H7.38309C7.61535 15.6719 9.90195 17.8174 12.6821 17.8242L9.03834 12.9492ZM13.929 19.4925C13.6247 19.5309 13.3146 19.5508 13 19.5508C8.93989 19.5508 5.63672 16.2476 5.63672 12.1875C5.63672 11.7668 5.29567 11.4258 4.875 11.4258C4.45433 11.4258 4.11328 11.7668 4.11328 12.1875C4.11328 16.831 7.69341 20.6535 12.2383 21.0412V24.4766H8.125C7.70433 24.4766 7.36328 24.8176 7.36328 25.2383C7.36328 25.659 7.70433 26 8.125 26H17.875C18.1487 26 18.3888 25.8556 18.523 25.6388L17.6543 24.4766H13.7617V21.0412C14.166 21.0067 14.5626 20.9451 14.9497 20.8581L13.929 19.4925ZM20.0242 17.6252L19.071 16.35C19.8859 15.1651 20.3633 13.731 20.3633 12.1875C20.3633 11.7668 20.7043 11.4258 21.125 11.4258C21.5457 11.4258 21.8867 11.7668 21.8867 12.1875C21.8867 14.2342 21.1912 16.1213 20.0242 17.6252ZM18.0309 14.9585L16.5291 12.9492H18.6169C18.5555 13.6689 18.3506 14.3483 18.0309 14.9585ZM15.4655 11.5262C15.577 11.4623 15.7061 11.4258 15.8438 11.4258H18.6367V9.69922H15.0312C14.6106 9.69922 14.2695 9.35817 14.2695 8.9375C14.2695 8.51683 14.6106 8.17578 15.0312 8.17578H18.6367V6.44922H15.8438C15.4231 6.44922 15.082 6.10817 15.082 5.6875C15.082 5.26683 15.4231 4.92578 15.8438 4.92578H18.6173C18.3867 2.1708 16.0923 0 13.3047 0H12.6953C10.9627 0 9.42056 0.838648 8.4461 2.13493L10.7124 5.16703C10.7509 5.20813 10.7849 5.25349 10.8136 5.30234L15.4655 11.5262Z" fill="white"/>
<rect x="3.30579" y="1.93921" width="2" height="28.1174" transform="rotate(-36.7759 3.30579 1.93921)" fill="white"/>
</svg>
