<svg width="34" height="34" viewBox="0 0 34 34" fill="none" xmlns="http://www.w3.org/2000/svg">
<g clip-path="url(#clip0)">
<path d="M33.1675 3.09905C32.6127 2.54424 31.946 2.26656 31.1665 2.26656H2.83333C2.05418 2.26656 1.38736 2.54424 0.83218 3.09905C0.277311 3.65404 0 4.3208 0 5.10001V24.3668C0 25.1462 0.277311 25.8129 0.83218 26.368C1.38736 26.9228 2.05418 27.2 2.83333 27.2H12.4668C12.4668 27.6485 12.3723 28.1094 12.1834 28.5812C11.9946 29.0535 11.8056 29.4665 11.6167 29.8206C11.428 30.175 11.3336 30.4344 11.3336 30.5996C11.3336 30.9065 11.4457 31.1727 11.67 31.3964C11.8942 31.621 12.1599 31.7335 12.4668 31.7335H21.5335C21.8404 31.7335 22.1062 31.6211 22.3304 31.3964C22.5549 31.1728 22.667 30.9065 22.667 30.5996C22.667 30.4465 22.5723 30.1895 22.3835 29.8296C22.1945 29.4697 22.0056 29.0502 21.8169 28.5725C21.628 28.0943 21.5335 27.6369 21.5335 27.2H31.167C31.9461 27.2 32.6128 26.9228 33.1676 26.368C33.7226 25.813 34.0001 25.1463 34.0001 24.3668V5.10001C34.0002 4.3208 33.7226 3.65404 33.1675 3.09905ZM31.7333 19.8334C31.7333 19.9869 31.6773 20.1195 31.5652 20.2318C31.4529 20.3437 31.3201 20.3997 31.1665 20.3997H2.83333C2.67995 20.3997 2.54709 20.3437 2.43495 20.2318C2.32287 20.1191 2.26674 19.9869 2.26674 19.8334V5.10001C2.26674 4.9465 2.32269 4.81377 2.43495 4.70163C2.54715 4.58968 2.68001 4.53342 2.83333 4.53342H31.167C31.3202 4.53342 31.4533 4.58949 31.5652 4.70163C31.6773 4.81383 31.7333 4.94657 31.7333 5.10001V19.8334Z" fill="#136788"/>
</g>
<defs>
<clipPath id="clip0">
<rect width="34" height="34" fill="white"/>
</clipPath>
</defs>
</svg>
