<svg width="134" height="43" viewBox="0 0 134 43" fill="none" xmlns="http://www.w3.org/2000/svg">
<path d="M51.688 27.126C50.764 27.126 49.936 26.976 49.204 26.676C48.472 26.376 47.884 25.932 47.44 25.344C47.008 24.756 46.78 24.048 46.756 23.22H50.032C50.08 23.688 50.242 24.048 50.518 24.3C50.794 24.54 51.154 24.66 51.598 24.66C52.054 24.66 52.414 24.558 52.678 24.354C52.942 24.138 53.074 23.844 53.074 23.472C53.074 23.16 52.966 22.902 52.75 22.698C52.546 22.494 52.288 22.326 51.976 22.194C51.676 22.062 51.244 21.912 50.68 21.744C49.864 21.492 49.198 21.24 48.682 20.988C48.166 20.736 47.722 20.364 47.35 19.872C46.978 19.38 46.792 18.738 46.792 17.946C46.792 16.77 47.218 15.852 48.07 15.192C48.922 14.52 50.032 14.184 51.4 14.184C52.792 14.184 53.914 14.52 54.766 15.192C55.618 15.852 56.074 16.776 56.134 17.964H52.804C52.78 17.556 52.63 17.238 52.354 17.01C52.078 16.77 51.724 16.65 51.292 16.65C50.92 16.65 50.62 16.752 50.392 16.956C50.164 17.148 50.05 17.43 50.05 17.802C50.05 18.21 50.242 18.528 50.626 18.756C51.01 18.984 51.61 19.23 52.426 19.494C53.242 19.77 53.902 20.034 54.406 20.286C54.922 20.538 55.366 20.904 55.738 21.384C56.11 21.864 56.296 22.482 56.296 23.238C56.296 23.958 56.11 24.612 55.738 25.2C55.378 25.788 54.85 26.256 54.154 26.604C53.458 26.952 52.636 27.126 51.688 27.126ZM57.6682 20.664C57.6682 19.416 57.9382 18.306 58.4782 17.334C59.0182 16.35 59.7682 15.588 60.7282 15.048C61.7002 14.496 62.7982 14.22 64.0222 14.22C65.5222 14.22 66.8062 14.616 67.8742 15.408C68.9422 16.2 69.6562 17.28 70.0162 18.648H66.6322C66.3802 18.12 66.0202 17.718 65.5522 17.442C65.0962 17.166 64.5742 17.028 63.9862 17.028C63.0382 17.028 62.2702 17.358 61.6822 18.018C61.0942 18.678 60.8002 19.56 60.8002 20.664C60.8002 21.768 61.0942 22.65 61.6822 23.31C62.2702 23.97 63.0382 24.3 63.9862 24.3C64.5742 24.3 65.0962 24.162 65.5522 23.886C66.0202 23.61 66.3802 23.208 66.6322 22.68H70.0162C69.6562 24.048 68.9422 25.128 67.8742 25.92C66.8062 26.7 65.5222 27.09 64.0222 27.09C62.7982 27.09 61.7002 26.82 60.7282 26.28C59.7682 25.728 59.0182 24.966 58.4782 23.994C57.9382 23.022 57.6682 21.912 57.6682 20.664ZM78.3452 27L75.7172 22.23H74.9792V27H71.9012V14.364H77.0672C78.0632 14.364 78.9092 14.538 79.6052 14.886C80.3132 15.234 80.8412 15.714 81.1892 16.326C81.5372 16.926 81.7112 17.598 81.7112 18.342C81.7112 19.182 81.4712 19.932 80.9912 20.592C80.5232 21.252 79.8272 21.72 78.9032 21.996L81.8192 27H78.3452ZM74.9792 20.052H76.8872C77.4512 20.052 77.8712 19.914 78.1472 19.638C78.4352 19.362 78.5792 18.972 78.5792 18.468C78.5792 17.988 78.4352 17.61 78.1472 17.334C77.8712 17.058 77.4512 16.92 76.8872 16.92H74.9792V20.052ZM83.1213 20.664C83.1213 19.416 83.3913 18.306 83.9313 17.334C84.4713 16.35 85.2213 15.588 86.1813 15.048C87.1533 14.496 88.2513 14.22 89.4753 14.22C90.9753 14.22 92.2593 14.616 93.3273 15.408C94.3953 16.2 95.1093 17.28 95.4693 18.648H92.0853C91.8333 18.12 91.4733 17.718 91.0053 17.442C90.5493 17.166 90.0273 17.028 89.4393 17.028C88.4913 17.028 87.7233 17.358 87.1353 18.018C86.5473 18.678 86.2533 19.56 86.2533 20.664C86.2533 21.768 86.5473 22.65 87.1353 23.31C87.7233 23.97 88.4913 24.3 89.4393 24.3C90.0273 24.3 90.5493 24.162 91.0053 23.886C91.4733 23.61 91.8333 23.208 92.0853 22.68H95.4693C95.1093 24.048 94.3953 25.128 93.3273 25.92C92.2593 26.7 90.9753 27.09 89.4753 27.09C88.2513 27.09 87.1533 26.82 86.1813 26.28C85.2213 25.728 84.4713 24.966 83.9313 23.994C83.3913 23.022 83.1213 21.912 83.1213 20.664ZM105.22 24.768H100.504L99.7483 27H96.5263L101.098 14.364H104.662L109.234 27H105.976L105.22 24.768ZM104.428 22.392L102.862 17.766L101.314 22.392H104.428ZM115.198 27.126C114.274 27.126 113.446 26.976 112.714 26.676C111.982 26.376 111.394 25.932 110.95 25.344C110.518 24.756 110.29 24.048 110.266 23.22H113.542C113.59 23.688 113.752 24.048 114.028 24.3C114.304 24.54 114.664 24.66 115.108 24.66C115.564 24.66 115.924 24.558 116.188 24.354C116.452 24.138 116.584 23.844 116.584 23.472C116.584 23.16 116.476 22.902 116.26 22.698C116.056 22.494 115.798 22.326 115.486 22.194C115.186 22.062 114.754 21.912 114.19 21.744C113.374 21.492 112.708 21.24 112.192 20.988C111.676 20.736 111.232 20.364 110.86 19.872C110.488 19.38 110.302 18.738 110.302 17.946C110.302 16.77 110.728 15.852 111.58 15.192C112.432 14.52 113.542 14.184 114.91 14.184C116.302 14.184 117.424 14.52 118.276 15.192C119.128 15.852 119.584 16.776 119.644 17.964H116.314C116.29 17.556 116.14 17.238 115.864 17.01C115.588 16.77 115.234 16.65 114.802 16.65C114.43 16.65 114.13 16.752 113.902 16.956C113.674 17.148 113.56 17.43 113.56 17.802C113.56 18.21 113.752 18.528 114.136 18.756C114.52 18.984 115.12 19.23 115.936 19.494C116.752 19.77 117.412 20.034 117.916 20.286C118.432 20.538 118.876 20.904 119.248 21.384C119.62 21.864 119.806 22.482 119.806 23.238C119.806 23.958 119.62 24.612 119.248 25.2C118.888 25.788 118.36 26.256 117.664 26.604C116.968 26.952 116.146 27.126 115.198 27.126ZM130.79 14.364V16.83H127.442V27H124.364V16.83H121.016V14.364H130.79Z" fill="white"/>
<g filter="url(#filter0_d)">
<path d="M28.1119 5.94978C28.6024 5.10023 29.6949 4.80226 30.492 5.37406C33.2098 7.32364 35.3409 9.99995 36.6298 13.1117C38.1462 16.7725 38.4122 20.8313 37.3867 24.6587C36.3611 28.4861 34.1013 31.8682 30.9577 34.2804C27.8141 36.6925 23.9624 38 20 38C16.0376 38 12.1859 36.6925 9.0423 34.2804C5.89871 31.8682 3.63889 28.4861 2.61334 24.6587C1.58779 20.8313 1.85382 16.7725 3.37017 13.1117C4.6591 9.99996 6.79018 7.32365 9.50797 5.37406C10.3051 4.80227 11.3976 5.10024 11.8881 5.94979C12.3786 6.79934 12.0793 7.87738 11.2963 8.46835C9.24953 10.0132 7.64168 12.0823 6.65219 14.4712C5.43511 17.4095 5.22158 20.6673 6.04473 23.7393C6.86788 26.8113 8.6817 29.5259 11.2049 31.462C13.7281 33.3981 16.8196 34.4476 20 34.4476C23.1804 34.4476 26.2719 33.3981 28.7951 31.462C31.3183 29.5259 33.1321 26.8113 33.9553 23.7393C34.7784 20.6673 34.5649 17.4095 33.3478 14.4711C32.3583 12.0823 30.7505 10.0132 28.7037 8.46835C27.9207 7.87738 27.6214 6.79933 28.1119 5.94978Z" fill="white"/>
</g>
<g filter="url(#filter1_d)">
<path fill-rule="evenodd" clip-rule="evenodd" d="M20 27.3125C24.0386 27.3125 27.3125 24.0386 27.3125 20C27.3125 15.9614 24.0386 12.6875 20 12.6875C15.9614 12.6875 12.6875 15.9614 12.6875 20C12.6875 24.0386 15.9614 27.3125 20 27.3125ZM21.6758 20.3047C22.2285 20.3047 22.7187 20.0371 23.024 19.6244C23.0391 19.7475 23.0469 19.8728 23.0469 20C23.0469 21.6827 21.6827 23.0469 20 23.0469C18.3173 23.0469 16.9531 21.6827 16.9531 20C16.9531 18.3173 18.3173 16.9531 20 16.9531C20.3381 16.9531 20.6633 17.0082 20.9672 17.1098C20.3959 17.3768 20 17.9566 20 18.6289C20 19.5544 20.7503 20.3047 21.6758 20.3047Z" fill="white"/>
</g>
<g filter="url(#filter2_d)">
<path d="M22.25 4.25C22.25 5.49264 21.2426 6.5 20 6.5C18.7574 6.5 17.75 5.49264 17.75 4.25C17.75 3.00736 18.7574 2 20 2C21.2426 2 22.25 3.00736 22.25 4.25Z" fill="white"/>
</g>
<defs>
<filter id="filter0_d" x="0.5" y="3.57967" width="42" height="38.9203" filterUnits="userSpaceOnUse" color-interpolation-filters="sRGB">
<feFlood flood-opacity="0" result="BackgroundImageFix"/>
<feColorMatrix in="SourceAlpha" type="matrix" values="0 0 0 0 0 0 0 0 0 0 0 0 0 0 0 0 0 0 127 0" result="hardAlpha"/>
<feOffset dx="1.5" dy="1.5"/>
<feGaussianBlur stdDeviation="1.5"/>
<feComposite in2="hardAlpha" operator="out"/>
<feColorMatrix type="matrix" values="0 0 0 0 0 0 0 0 0 0 0 0 0 0 0 0 0 0 0.08 0"/>
<feBlend mode="normal" in2="BackgroundImageFix" result="effect1_dropShadow"/>
<feBlend mode="normal" in="SourceGraphic" in2="effect1_dropShadow" result="shape"/>
</filter>
<filter id="filter1_d" x="11.1875" y="11.1875" width="20.625" height="20.625" filterUnits="userSpaceOnUse" color-interpolation-filters="sRGB">
<feFlood flood-opacity="0" result="BackgroundImageFix"/>
<feColorMatrix in="SourceAlpha" type="matrix" values="0 0 0 0 0 0 0 0 0 0 0 0 0 0 0 0 0 0 127 0" result="hardAlpha"/>
<feOffset dx="1.5" dy="1.5"/>
<feGaussianBlur stdDeviation="1.5"/>
<feComposite in2="hardAlpha" operator="out"/>
<feColorMatrix type="matrix" values="0 0 0 0 0 0 0 0 0 0 0 0 0 0 0 0 0 0 0.08 0"/>
<feBlend mode="normal" in2="BackgroundImageFix" result="effect1_dropShadow"/>
<feBlend mode="normal" in="SourceGraphic" in2="effect1_dropShadow" result="shape"/>
</filter>
<filter id="filter2_d" x="16.25" y="0.5" width="10.5" height="10.5" filterUnits="userSpaceOnUse" color-interpolation-filters="sRGB">
<feFlood flood-opacity="0" result="BackgroundImageFix"/>
<feColorMatrix in="SourceAlpha" type="matrix" values="0 0 0 0 0 0 0 0 0 0 0 0 0 0 0 0 0 0 127 0" result="hardAlpha"/>
<feOffset dx="1.5" dy="1.5"/>
<feGaussianBlur stdDeviation="1.5"/>
<feComposite in2="hardAlpha" operator="out"/>
<feColorMatrix type="matrix" values="0 0 0 0 0 0 0 0 0 0 0 0 0 0 0 0 0 0 0.08 0"/>
<feBlend mode="normal" in2="BackgroundImageFix" result="effect1_dropShadow"/>
<feBlend mode="normal" in="SourceGraphic" in2="effect1_dropShadow" result="shape"/>
</filter>
</defs>
</svg>
