<svg width="56" height="56" viewBox="0 0 56 56" fill="none" xmlns="http://www.w3.org/2000/svg">
<path d="M47.1406 26.25C47.1406 25.3439 46.4061 24.6094 45.5 24.6094C44.5939 24.6094 43.8594 25.3439 43.8594 26.25C43.8594 34.9949 36.7449 42.1094 28 42.1094C19.2551 42.1094 12.1406 34.9949 12.1406 26.25C12.1406 25.3439 11.4061 24.6094 10.5 24.6094C9.59394 24.6094 8.85938 25.3439 8.85938 26.25C8.85938 36.2515 16.5704 44.4846 26.3594 45.3195V52.7188H17.5C16.5939 52.7188 15.8594 53.4533 15.8594 54.3594C15.8594 55.2654 16.5939 56 17.5 56H38.5C39.4061 56 40.1406 55.2654 40.1406 54.3594C40.1406 53.4533 39.4061 52.7188 38.5 52.7188H29.6406V45.3195C39.4296 44.4846 47.1406 36.2515 47.1406 26.25Z" fill="white"/>
<path d="M34.125 27.8906C33.2189 27.8906 32.4844 27.1561 32.4844 26.25C32.4844 25.3439 33.2189 24.6094 34.125 24.6094H40.1406V20.8906H32.375C31.4689 20.8906 30.7344 20.1561 30.7344 19.25C30.7344 18.3439 31.4689 17.6094 32.375 17.6094H40.1406V13.8906H34.125C33.2189 13.8906 32.4844 13.1561 32.4844 12.25C32.4844 11.3439 33.2189 10.6094 34.125 10.6094H40.0988C39.6022 4.67556 34.6603 0 28.6562 0H27.3438C21.3397 0 16.3977 4.67567 15.901 10.6094H21.875C22.7811 10.6094 23.5156 11.3439 23.5156 12.25C23.5156 13.1561 22.7811 13.8906 21.875 13.8906H15.8594V17.6094H23.625C24.5311 17.6094 25.2656 18.3439 25.2656 19.25C25.2656 20.1561 24.5311 20.8906 23.625 20.8906H15.8594V24.6094H21.875C22.7811 24.6094 23.5156 25.3439 23.5156 26.25C23.5156 27.1561 22.7811 27.8906 21.875 27.8906H15.902C16.4031 33.7641 21.3429 38.3906 27.3438 38.3906H28.6562C34.6571 38.3906 39.5969 33.7641 40.098 27.8906H34.125Z" fill="white"/>
</svg>
