<svg width="24" height="24" viewBox="0 0 24 24" fill="none" xmlns="http://www.w3.org/2000/svg">
<g clip-path="url(#clip0)">
<path d="M15.713 9.98425H14.2852L13.6133 14.0157H15.0411C16.189 14.0157 17.2808 13.1199 17.4768 12C17.6448 10.8801 16.8609 9.98425 15.713 9.98425Z" fill="white"/>
<path d="M23.3281 10.4037L18.4567 5.53226L13.5853 0.660867C12.7174 -0.207024 11.2896 -0.207024 10.3937 0.660867L5.52231 5.53226L0.650919 10.4037C-0.216973 11.2715 -0.216973 12.6994 0.650919 13.5953L5.52231 18.4666L10.3937 23.338C11.2616 24.2059 12.6894 24.2059 13.5853 23.338L18.4567 18.4666L23.3281 13.5953C24.224 12.6994 24.224 11.2995 23.3281 10.4037ZM10.6737 15.1631C10.6457 15.303 10.5057 15.415 10.3657 15.415H9.49781C9.35783 15.415 9.27384 15.303 9.27384 15.1631L9.69379 12.6714H6.89414L6.47419 15.1631C6.44619 15.303 6.30621 15.415 6.16623 15.415H5.29834C5.15836 15.415 5.07437 15.303 5.07437 15.1631L6.13823 8.86384C6.16623 8.72386 6.30621 8.61187 6.44619 8.61187H7.31409C7.45407 8.61187 7.53806 8.72386 7.53806 8.86384L7.11811 11.2995H9.91776L10.3377 8.86384C10.3657 8.72386 10.5057 8.61187 10.6457 8.61187H11.5136C11.6535 8.61187 11.7375 8.72386 11.7375 8.86384L10.6737 15.1631ZM18.8486 11.9995C18.5407 13.8752 16.7209 15.415 14.7892 15.415H12.2415C12.1015 15.415 12.0175 15.303 12.0175 15.1631L13.0814 8.86384C13.1094 8.72386 13.2493 8.61187 13.3893 8.61187H15.937C17.8688 8.58388 19.1566 10.1237 18.8486 11.9995Z" fill="white"/>
</g>
<defs>
<clipPath id="clip0">
<rect width="24" height="24" fill="white"/>
</clipPath>
</defs>
</svg>
