<svg width="34" height="34" viewBox="0 0 34 34" fill="none" xmlns="http://www.w3.org/2000/svg">
<path d="M29.6751 2.14262H4.36398C1.94396 2.14262 0 4.08658 0 6.50661V27.4934C0 29.9134 1.94396 31.8574 4.36398 31.8574H29.6354C32.0554 31.8574 33.9994 29.9134 33.9994 27.4934V6.50661C34.0391 4.08658 32.0554 2.14262 29.6751 2.14262ZM15.2343 6.18923C16.2261 6.18923 17.0195 6.98268 17.0195 7.97449C17.0195 8.9663 16.2261 9.75976 15.2343 9.75976C14.2424 9.75976 13.449 8.9663 13.449 7.97449C13.4093 6.98268 14.2424 6.18923 15.2343 6.18923ZM10.1958 6.18923C11.1877 6.18923 11.9811 6.98268 11.9811 7.97449C11.9811 8.9663 11.1877 9.75976 10.1958 9.75976C9.20403 9.75976 8.41058 8.9663 8.41058 7.97449C8.37091 6.98268 9.20403 6.18923 10.1958 6.18923ZM5.51448 6.18923C6.5063 6.18923 7.29975 6.98268 7.29975 7.97449C7.29975 8.9663 6.5063 9.75976 5.51448 9.75976C4.52267 9.75976 3.72922 8.9663 3.72922 7.97449C3.72922 6.98268 4.52267 6.18923 5.51448 6.18923ZM29.6751 29.4373H4.36398C3.25315 29.4373 2.38035 28.5646 2.38035 27.4537V14.5601H31.619V27.4537H31.6587C31.6587 28.5646 30.7859 29.4373 29.6751 29.4373Z" fill="white"/>
</svg>
