<svg width="34" height="34" viewBox="0 0 34 34" fill="none" xmlns="http://www.w3.org/2000/svg">
<path fill-rule="evenodd" clip-rule="evenodd" d="M17 0C9.51999 0 3.39999 6.12 3.39999 13.6C3.39999 21.08 9.51999 27.2 17 27.2C24.48 27.2 30.6 21.08 30.6 13.6C30.6 6.12 24.48 0 17 0ZM17 20.4C13.26 20.4 10.2 17.34 10.2 13.6C10.2 9.86 13.26 6.8 17 6.8C20.74 6.8 23.8 9.86 23.8 13.6C23.8 17.34 20.74 20.4 17 20.4ZM17 10.2C16.66 10.2 16.32 10.2 16.15 10.37C17 11.9 15.13 13.6 13.77 12.75C13.6 12.92 13.6 13.26 13.6 13.6C13.6 15.47 15.13 17 17 17C18.87 17 20.4 15.47 20.4 13.6C20.4 11.73 18.87 10.2 17 10.2ZM17.17 30.6C20.4 30.6 23.46 29.75 26.18 28.05L29.07 32.81C29.07 33.32 28.73 34 28.05 34H5.95001C5.27001 34 4.93001 33.32 5.27001 32.81L8.16001 28.05C10.71 29.75 13.77 30.6 17.17 30.6Z" fill="white"/>
</svg>
